HIERARCHY
ROOT Hips
{
  OFFSET -187.679 86.5976 -156.378
  CHANNELS 6 Xposition Yposition Zposition Zrotation Xrotation Yrotation
  JOINT LeftUpLeg
  {
    OFFSET 8.64259 1.95398 -2.38835
    CHANNELS 3 Zrotation Xrotation Yrotation
    JOINT LeftLeg
    {
      OFFSET 43.7702 0 0
      CHANNELS 3 Zrotation Xrotation Yrotation
      JOINT LeftFoot
      {
        OFFSET 40.6238 0 0
        CHANNELS 3 Zrotation Xrotation Yrotation
        JOINT LeftToeBase
        {
          OFFSET 12.7242 0 0
          CHANNELS 3 Zrotation Xrotation Yrotation
          End Site
          {
            OFFSET 0 0 0
          }
        }
      }
    }
  }
  JOINT RightUpLeg
  {
    OFFSET -8.2249 1.95398 -2.59336
    CHANNELS 3 Zrotation Xrotation Yrotation
    JOINT RightLeg
    {
      OFFSET 43.5653 0 0
      CHANNELS 3 Zrotation Xrotation Yrotation
      JOINT RightFoot
      {
        OFFSET 40.6238 0 0
        CHANNELS 3 Zrotation Xrotation Yrotation
        JOINT RightToeBase
        {
          OFFSET 12.7242 0 0
          CHANNELS 3 Zrotation Xrotation Yrotation
          End Site
          {
            OFFSET 0 0 0
          }
        }
      }
    }
  }
  JOINT Spine
  {
    OFFSET 0.165834 0.87714 6.61349
    CHANNELS 3 Zrotation Xrotation Yrotation
    JOINT Spine1
    {
      OFFSET 7.38963 1.71661e-005 0
      CHANNELS 3 Zrotation Xrotation Yrotation
      JOINT Spine2
      {
        OFFSET 11.9445 1.14441e-005 0
        CHANNELS 3 Zrotation Xrotation Yrotation
        JOINT Spine3
        {
          OFFSET 14.7254 4.19617e-005 0
          CHANNELS 3 Zrotation Xrotation Yrotation
          JOINT Spine4
          {
            OFFSET 10.9679 0 0
            CHANNELS 3 Zrotation Xrotation Yrotation
            JOINT RightShoulder
            {
              OFFSET 2.46616 -1.6653 3.69651
              CHANNELS 3 Zrotation Xrotation Yrotation
              JOINT RightArm
              {
                OFFSET 13.0012 0 0
                CHANNELS 3 Zrotation Xrotation Yrotation
                JOINT RightForeArm
                {
                  OFFSET 28.7848 1.52588e-005 0
                  CHANNELS 3 Zrotation Xrotation Yrotation
                  JOINT RightHand
                  {
                    OFFSET 26.5688 1.52588e-005 0
                    CHANNELS 3 Zrotation Xrotation Yrotation
                    End Site
                    {
                      OFFSET 0 0 0
                    }
                  }
                }
              }
            }
            JOINT LeftShoulder
            {
              OFFSET 2.38034 -1.29275 -3.7523
              CHANNELS 3 Zrotation Xrotation Yrotation
              JOINT LeftArm
              {
                OFFSET 16.3182 6.10352e-005 0
                CHANNELS 3 Zrotation Xrotation Yrotation
                JOINT LeftForeArm
                {
                  OFFSET 27.0901 0 0
                  CHANNELS 3 Zrotation Xrotation Yrotation
                  JOINT LeftHand
                  {
                    OFFSET 24.5451 1.52588e-005 0
                    CHANNELS 3 Zrotation Xrotation Yrotation
                    End Site
                    {
                      OFFSET 0 0 0
                    }
                  }
                }
              }
            }
            JOINT Neck
            {
              OFFSET 5.0226 -0.0266342 0
              CHANNELS 3 Zrotation Xrotation Yrotation
              JOINT Head
              {
                OFFSET 6.69363 2.86102e-005 0
                CHANNELS 3 Zrotation Xrotation Yrotation
                End Site
                {
                  OFFSET 0 0 0
                }
              }
            }
          }
        }
      }
    }
  }
}
MOTION
Frames:	10
Frame Time:	0.0416667
151.464 14.0153 123.046 -8.26501 -1.23614 -91.1356 -171.298 0.576307 95.2788 -27.3574 22.0904 4.26721 60.1235 0.407118 -1.66789 50.9592 2.01231 51.4241 168.118 -1.44798 81.6761 -30.6952 -3.34898 2.67948 71.7275 -4.06681 1.51812 35.1201 -0.515663 6.47658 -0.324706 6.32526 -89.7879 14.2244 -0.539233 0.500333 2.55347 -0.516719 0.523564 -19.9822 -0.664686 0.315133 0.0304252 -0.664701 0.315121 98.823 -9.85493 -92.3168 37.5792 70.4762 -82.1785 -20.7092 -8.94724 -122.696 -2.31322 -0.414621 20.9006 -81.6651 -5.85239 84.9512 -30.4181 -77.8389 -71.713 19.0916 7.2989 -117.656 -2.97645 -0.124289 2.92619 42.5306 0.621832 -8.71303 -3.72796 4.91304 11.0419 
151.37 13.2335 123.261 -10.336 -3.32826 -89.7044 -170.441 -0.72678 97.3029 -29.0223 25.1178 5.33537 61.0906 0.679898 -1.44264 50.9744 1.89919 52.1987 167.634 -6.09147 82.6212 -27.7348 -1.6282 3.64562 70.0786 -3.59244 0.555045 36.5924 -0.609937 8.32755 -0.57171 6.59574 -89.9244 13.6842 -1.09682 0.296286 2.01367 -1.08269 0.344285 -20.5253 -1.13515 -0.0470912 -0.512601 -1.13515 -0.0470919 98.7877 -8.21719 -92.858 44.5295 71.3748 -85.143 -29.4683 -1.24562 -128.53 -4.47765 -0.466709 7.65305 -81.5198 -5.4949 85.2479 -33.5496 -78.0519 -74.4637 17.6339 8.30086 -117.509 -0.43975 0.062332 4.79076 40.5761 2.89893 -1.41255 2.92247 3.38277 -0.895978 
151.377 13.3584 123.246 -10.0006 -3.15531 -89.9204 -170.575 -0.439943 97.069 -28.8337 24.7471 5.21018 61.1613 0.742748 -1.37727 50.61 1.43638 52.6979 167.713 -5.39886 82.4794 -28.1448 -1.80469 3.5659 70.0488 -3.57164 0.686594 35.1369 -0.975952 8.49126 -0.506511 6.53442 -89.8218 13.8074 -0.917294 0.479085 2.13667 -0.895319 0.518974 -20.4009 -1.01885 0.181238 -0.388289 -1.01886 0.181225 98.3295 -9.81146 -93.8002 39.7058 72.8503 -80.9257 -27.505 -2.69298 -128.076 -4.11643 -0.449046 8.8649 -81.3219 -2.473 84.8889 -35.6499 -76.7556 -73.6683 19.0902 7.38514 -118.025 -1.28874 0.00541117 5.7004 40.0066 2.03673 -4.42531 3.22771 4.13194 1.76994 
151.405 13.364 123.281 -10.0414 -3.08614 -90.1225 -170.704 -0.616194 96.8037 -28.6915 24.3512 5.19601 61.2394 0.755968 -1.63329 50.5535 1.23056 53.5302 167.544 -5.24112 82.1765 -28.3941 -2.08403 3.57015 70.2199 -3.60951 0.585718 36.327 -0.702117 8.48112 -0.51167 6.52896 -89.7466 13.8186 -0.890889 0.626399 2.14773 -0.862455 0.665004 -20.3894 -1.03796 0.329668 -0.376787 -1.03797 0.329673 98.0175 -10.7869 -94.4262 38.3433 73.3462 -80.0874 -27.5284 -2.65675 -128.117 -4.35895 -0.482007 8.97537 -81.4093 -1.42317 84.2843 -35.7787 -77.0287 -72.8262 19.4564 7.353 -117.995 -1.86935 -0.0426623 5.76218 38.9576 1.4445 -5.94146 3.87636 4.31674 2.66088 
151.357 13.35 123.277 -10.2325 -3.06663 -90.1308 -170.635 -0.667823 96.822 -29.097 24.4924 5.26811 60.8283 0.525658 -1.63344 50.2706 0.928406 53.5453 167.472 -5.61895 82.1569 -28.0134 -2.10179 3.53491 70.1311 -3.61489 0.53824 36.4009 -0.648283 8.31421 -0.529047 6.56792 -89.7445 13.7408 -0.924706 0.633916 2.07006 -0.895907 0.673992 -20.4673 -1.07247 0.326688 -0.454658 -1.07246 0.326686 98.1099 -9.51249 -94.5474 41.973 73.6776 -81.8616 -28.234 -2.30604 -128.886 -3.95224 -0.435734 9.08799 -81.3934 -1.65836 84.4136 -35.7785 -77.4507 -73.3512 19.3606 7.52996 -117.871 -1.78109 -0.0359731 5.6264 39.7245 1.67032 -5.74393 3.12595 4.45327 2.58522 
151.389 13.3734 123.272 -10.1398 -2.99052 -90.099 -170.662 -0.515177 96.8264 -29.1247 24.5009 5.26058 61.0579 0.650633 -1.51454 50.1425 0.394774 55.6568 167.512 -5.49739 82.2156 -28.0295 -2.19101 3.51322 70.1426 -3.62387 0.442009 36.6835 -0.514643 7.98457 -0.541127 6.51175 -89.6658 13.8535 -0.909772 0.791389 2.18259 -0.874066 0.830648 -20.3543 -1.10555 0.48136 -0.341595 -1.10555 0.48135 97.5182 -12.3823 -95.3635 35.8801 73.8405 -78.5487 -27.4618 -2.68827 -127.946 -4.4318 -0.487989 8.89102 -81.3766 -0.601476 84.082 -33.7115 -77.1821 -70.3229 19.5095 7.2 -118.222 -1.59919 -0.0204769 5.61608 37.5901 0.957959 -7.64867 4.96197 4.69843 4.06231 
151.417 13.3787 123.276 -10.198 -3.05211 -90.0947 -170.618 -0.659382 96.8858 -28.903 24.6937 5.22006 61.1462 0.733704 -1.37508 50.1563 0.0529235 57.3939 167.52 -5.52436 82.2151 -28.1407 -2.13907 3.53586 70.2972 -3.6603 0.54811 35.0125 -0.963975 8.31805 -0.57377 6.51889 -89.6551 13.8395 -0.969491 0.820521 2.16865 -0.932424 0.862393 -20.3685 -1.17125 0.491214 -0.355862 -1.17125 0.491202 97.4348 -12.0372 -95.7142 35.7973 73.7865 -77.9926 -27.6555 -2.51002 -128.045 -3.90522 -0.419782 8.72387 -81.154 -0.394561 84.7699 -34.6552 -76.5658 -70.8519 19.5174 7.02911 -118.395 -2.01697 -0.055972 5.69621 37.8767 1.12361 -7.68434 4.72399 4.87471 3.97237 
151.441 13.3863 123.256 -10.1001 -3.05361 -90.0126 -170.592 -0.61121 96.9837 -28.6547 24.7516 5.17994 60.6448 0.560779 -1.20143 50.9049 0.710853 58.5585 167.594 -5.36143 82.3204 -28.3236 -2.05272 3.58586 70.3555 -3.66175 0.462486 35.9754 -0.749924 8.33868 -0.594696 6.55638 -89.6815 13.7647 -1.024 0.773646 2.0939 -0.988961 0.817956 -20.4438 -1.20918 0.430109 -0.431143 -1.20916 0.430105 97.6385 -10.6526 -95.5642 40.2351 74.073 -81.0132 -27.5937 -2.84084 -128.455 -4.30579 -0.474043 8.91315 -81.1214 -0.998282 85.0961 -36.1196 -77.3902 -73.3083 19.1401 7.5315 -118.157 -1.52488 -0.0137103 5.66325 39.52 1.3882 -7.11117 3.33319 4.87361 3.22419 
151.309 13.3573 123.278 -10.2267 -3.08456 -90.1282 -170.671 -0.441876 96.7478 -29.7715 24.4845 5.40649 61.5005 0.822304 -1.30643 47.5181 -3.64304 60.0799 167.443 -5.77174 82.1942 -27.6622 -2.04526 3.48473 69.9495 -3.60222 0.55518 37.0418 -0.510688 8.34907 -0.633966 6.51686 -89.6005 13.8444 -1.06214 0.942332 2.17353 -1.01962 0.988169 -20.3639 -1.29623 0.579561 -0.351237 -1.29622 0.579534 97.2048 -13.3314 -95.942 35.2363 73.3165 -78.7356 -28.0042 -2.28994 -127.645 -4.24507 -0.469294 9.01282 -81.1764 0.0918053 84.5088 -31.2862 -77.5252 -67.8052 19.2441 7.28524 -118.239 -2.0014 -0.0545901 5.71724 37.383 1.00983 -8.3826 5.1731 5.05405 3.75255 
151.407 13.3692 123.27 -10.1545 -3.01149 -90.0339 -170.609 -0.60142 96.9232 -28.9392 24.6395 5.2278 60.8351 0.580964 -1.41664 49.7612 -1.55657 62.7266 167.567 -5.49962 82.2762 -28.1308 -2.08866 3.53846 70.2463 -3.64006 0.491388 36.1319 -0.731631 8.41485 -0.652732 6.52938 -89.6107 13.8196 -1.1044 0.927037 2.14872 -1.06253 0.974737 -20.3891 -1.33195 0.552223 -0.376408 -1.33196 0.552223 97.062 -11.5306 -96.9273 38.0435 74.5125 -79.0935 -27.7363 -2.74429 -128.401 -4.23354 -0.466875 8.98094 -81.0896 -0.141452 84.8831 -32.3946 -77.8441 -69.1638 18.9278 7.59646 -118.135 -1.42308 -0.0046551 5.69414 37.7093 1.1769 -8.45876 4.60499 5.28166 4.21053 
